<svg width="176" height="67" viewBox="0 0 176 67" fill="none" xmlns="http://www.w3.org/2000/svg">
<g filter="url(#filter0_b)">
<path d="M56.1278 26.58H41.9878V1.975C41.9878 1.765 41.8128 1.59 41.5678 1.59C41.3578 1.59 41.1828 1.765 41.1828 1.975V27C41.1828 27.21 41.3578 27.385 41.5678 27.385H56.1278C56.3728 27.385 56.5478 27.21 56.5478 27C56.5478 26.755 56.3728 26.58 56.1278 26.58ZM46.1528 1.975V21.995C46.1528 22.205 46.3628 22.38 46.5728 22.38H56.1278C56.3728 22.38 56.5478 22.205 56.5478 21.995C56.5478 21.75 56.3728 21.575 56.1278 21.575H46.9928V1.975C46.9928 1.765 46.7828 1.59 46.5728 1.59C46.3628 1.59 46.1528 1.765 46.1528 1.975ZM86.2811 10.41C84.4961 4.845 79.1761 1.065 73.3311 1.065C65.4211 1.065 59.9611 6.735 59.9611 14.435C59.9611 22.17 65.4211 27.84 73.3311 27.84C79.1761 27.84 84.4961 24.095 86.2811 18.46C86.3511 18.25 86.2111 18.005 86.0011 17.935C85.7561 17.865 85.5461 17.97 85.4761 18.215C83.7961 23.5 78.8611 27 73.3311 27C65.9111 27 60.7661 21.715 60.7661 14.435C60.7661 7.155 65.9111 1.905 73.3311 1.905C78.8611 1.905 83.7961 5.405 85.4761 10.655C85.5461 10.9 85.7561 11.005 86.0011 10.935C86.2111 10.9 86.3511 10.62 86.2811 10.41ZM66.3311 18.53C67.7661 21.05 70.4261 22.66 73.3311 22.66C77.8461 22.66 81.4161 18.915 81.4161 14.435C81.4161 9.99 77.8461 6.245 73.3311 6.245C70.4261 6.245 67.7661 7.82 66.3311 10.34C66.2261 10.55 66.2961 10.795 66.4711 10.935C66.6811 11.04 66.9611 10.97 67.0661 10.76C68.3261 8.485 70.7061 7.05 73.3311 7.05C77.3911 7.05 80.5761 10.41 80.5761 14.435C80.5761 18.46 77.3911 21.82 73.3311 21.82C70.7061 21.82 68.3261 20.385 67.0661 18.11C66.9611 17.935 66.6811 17.865 66.4711 17.97C66.2961 18.075 66.2261 18.355 66.3311 18.53ZM93.9218 2.5L98.7868 14.435C98.9268 14.785 99.4168 14.75 99.5218 14.435L104.387 2.5C104.457 2.325 104.387 2.08 104.177 2.01C103.967 1.94 103.722 2.01 103.652 2.22L99.1718 13.21L94.6568 2.22C94.5868 2.01 94.3768 1.94 94.1668 2.01C93.9218 2.08 93.8518 2.325 93.9218 2.5ZM109.112 2.22L99.1718 26.65L89.2318 2.22C89.1268 2.01 88.8818 1.94 88.6718 2.01C88.4968 2.08 88.3918 2.325 88.4618 2.5L98.7868 27.84C98.9268 28.19 99.3818 28.225 99.5218 27.84L109.882 2.5C109.952 2.325 109.847 2.08 109.672 2.01C109.427 1.94 109.217 2.01 109.112 2.22ZM123.985 16.57H118.385C118.14 16.57 117.965 16.745 117.965 16.99V21.995C117.965 22.205 118.14 22.38 118.385 22.38H126.33C126.54 22.38 126.715 22.205 126.715 21.995C126.715 21.75 126.54 21.575 126.33 21.575H118.77V17.375H123.985C124.23 17.375 124.405 17.2 124.405 16.99C124.405 16.745 124.23 16.57 123.985 16.57ZM126.33 6.595H118.385C118.14 6.595 117.965 6.77 117.965 6.98V11.985C117.965 12.195 118.14 12.405 118.385 12.405H123.985C124.23 12.405 124.405 12.195 124.405 11.985C124.405 11.775 124.23 11.565 123.985 11.565H118.77V7.4H126.33C126.54 7.4 126.715 7.225 126.715 6.98C126.715 6.77 126.54 6.595 126.33 6.595ZM126.33 26.58H113.765V2.395H126.33C126.54 2.395 126.715 2.22 126.715 1.975C126.715 1.765 126.54 1.59 126.33 1.59H113.38C113.135 1.59 112.96 1.765 112.96 1.975V27C112.96 27.21 113.135 27.385 113.38 27.385H126.33C126.54 27.385 126.715 27.21 126.715 27C126.715 26.755 126.54 26.58 126.33 26.58ZM7.80539 40.185L12.8804 48.865C13.0554 49.145 13.4404 49.145 13.6154 48.865L18.7254 40.185C18.8304 39.975 18.7604 39.73 18.5854 39.625C18.3754 39.52 18.1654 39.59 17.9904 39.765L13.2304 47.85L8.47039 39.765C8.36539 39.59 8.12039 39.52 7.94539 39.625C7.73539 39.73 7.66539 39.975 7.80539 40.185ZM24.1154 39.765L15.4004 53.59C15.3654 53.695 15.3654 53.765 15.3654 53.835V64.93C15.3654 65.21 15.5404 65.385 15.7504 65.385C15.9604 65.385 16.1354 65.21 16.1354 64.93V53.94L24.8154 40.185C24.9204 40.01 24.8854 39.765 24.6754 39.625C24.5004 39.52 24.2554 39.59 24.1154 39.765ZM11.1654 64.93V53.8C11.1654 53.73 11.1304 53.66 11.0954 53.59L2.38039 39.765C2.24039 39.59 1.99539 39.52 1.82039 39.625C1.64539 39.765 1.57539 40.01 1.71539 40.185L10.3254 53.94V64.93C10.3254 65.21 10.5004 65.385 10.7454 65.385C10.9904 65.385 11.1654 65.21 11.1654 64.93ZM52.1014 48.41C50.3164 42.845 44.9964 39.065 39.1514 39.065C31.2414 39.065 25.7814 44.735 25.7814 52.435C25.7814 60.17 31.2414 65.84 39.1514 65.84C44.9964 65.84 50.3164 62.095 52.1014 56.46C52.1714 56.25 52.0314 56.005 51.8214 55.935C51.5764 55.865 51.3664 55.97 51.2964 56.215C49.6164 61.5 44.6814 65 39.1514 65C31.7314 65 26.5864 59.715 26.5864 52.435C26.5864 45.155 31.7314 39.905 39.1514 39.905C44.6814 39.905 49.6164 43.405 51.2964 48.655C51.3664 48.9 51.5764 49.005 51.8214 48.935C52.0314 48.9 52.1714 48.62 52.1014 48.41ZM32.1514 56.53C33.5864 59.05 36.2464 60.66 39.1514 60.66C43.6664 60.66 47.2364 56.915 47.2364 52.435C47.2364 47.99 43.6664 44.245 39.1514 44.245C36.2464 44.245 33.5864 45.82 32.1514 48.34C32.0464 48.55 32.1164 48.795 32.2914 48.935C32.5014 49.04 32.7814 48.97 32.8864 48.76C34.1464 46.485 36.5264 45.05 39.1514 45.05C43.2114 45.05 46.3964 48.41 46.3964 52.435C46.3964 56.46 43.2114 59.82 39.1514 59.82C36.5264 59.82 34.1464 58.385 32.8864 56.11C32.7814 55.935 32.5014 55.865 32.2914 55.97C32.1164 56.075 32.0464 56.355 32.1514 56.53ZM61.7721 55.865C61.7721 58.525 63.6271 60.415 66.2521 60.415C68.8771 60.415 70.7671 58.525 70.7671 55.865V40.01C70.7671 39.8 70.5921 39.625 70.3471 39.625C70.1371 39.625 69.9621 39.8 69.9621 40.01V55.865C69.9621 58.07 68.4571 59.645 66.2521 59.645C64.0821 59.645 62.5421 58.07 62.5421 55.865V40.01C62.5421 39.8 62.3671 39.625 62.1571 39.625C61.9471 39.625 61.7721 39.8 61.7721 40.01V55.865ZM75.0021 40.01V56.145C75.0021 61.395 71.1171 64.755 66.2521 64.755C61.1771 64.755 57.5021 61.255 57.5021 56.145V40.01C57.5021 39.8 57.3271 39.625 57.1171 39.625C56.8721 39.625 56.6971 39.8 56.6971 40.01V56.145C56.6971 61.675 60.7571 65.56 66.2521 65.56C71.6071 65.56 75.8071 61.85 75.8071 56.145V40.01C75.8071 39.8 75.6321 39.625 75.4221 39.625C75.1771 39.625 75.0021 39.8 75.0021 40.01ZM91.1439 50.37C92.7889 50.37 94.1189 49.145 94.1189 47.5C94.1189 45.82 92.7889 44.595 91.1439 44.595H86.7339C86.2089 44.595 86.2089 45.4 86.7339 45.4H91.1439C92.3339 45.4 93.3139 46.275 93.3139 47.5C93.3139 48.69 92.3339 49.6 91.1439 49.6H89.7439C89.4989 49.6 89.3239 49.775 89.3239 49.985C89.3239 50.195 89.4989 50.37 89.7439 50.37H91.1439ZM93.5589 64.755L87.0489 56.075C86.9089 55.9 86.6639 55.865 86.4889 55.97C86.3839 56.075 86.3139 56.215 86.3489 56.32V65C86.3489 65.21 86.5239 65.42 86.7339 65.42C86.9439 65.42 87.1539 65.21 87.1539 65V57.51L92.8939 65.21C93.0339 65.42 93.3139 65.455 93.4889 65.315C93.6639 65.175 93.6989 64.93 93.5589 64.755ZM82.1489 65V40.395H91.5639C95.4839 40.395 98.5639 43.615 98.5639 47.5C98.5639 51.35 95.4839 54.57 91.5639 54.57C91.3539 54.57 91.1789 54.745 91.1789 54.99C91.1789 55.095 91.2139 55.2 91.2839 55.27L98.9839 65.21C99.1589 65.42 99.4039 65.455 99.5789 65.28C99.7539 65.175 99.7889 64.93 99.6489 64.755L92.4039 55.375C96.3939 54.955 99.4039 51.49 99.4039 47.5C99.4039 43.16 95.9389 39.555 91.5639 39.555H81.7289C81.5189 39.555 81.3439 39.765 81.3439 39.975V65C81.3439 65.21 81.5189 65.42 81.7289 65.42C81.9739 65.42 82.1489 65.21 82.1489 65ZM102.137 63.705C103.537 64.405 104.867 64.86 106.127 65.14C112.497 66.645 118.132 63.915 118.132 57.58C118.132 51.245 110.467 49.95 108.892 48.76C108.402 48.375 108.122 47.815 108.122 47.29C108.087 46.1 109.032 45.47 110.082 45.33C111.727 45.155 113.862 45.82 115.087 46.31C115.577 46.52 115.892 45.785 115.402 45.575C113.372 44.735 111.797 44.42 110.117 44.525C108.507 44.595 107.247 45.785 107.317 47.395C107.527 50.58 111.867 49.915 115.297 53.135C118.272 55.865 117.747 60.24 115.367 62.655C112.252 65.77 106.582 65.105 102.557 63.005C102.067 62.76 101.682 63.46 102.137 63.705ZM116.032 40.535C114.387 39.975 113.127 39.695 112.147 39.555C106.512 38.785 102.277 42.04 102.277 47.465C102.277 53.975 109.942 54.885 111.587 56.25C112.392 56.985 112.532 58.245 111.692 59.015C109.942 60.625 105.427 59.33 103.222 57.79C102.802 57.51 102.312 58.14 102.767 58.455C105.007 60.1 107.842 60.66 110.047 60.52C111.692 60.415 113.162 59.26 113.057 57.615C112.847 54.395 108.577 54.99 105.147 52.015C102.137 49.32 102.697 44.875 104.937 42.46C107.702 39.45 112.007 39.975 115.752 41.27C116.242 41.48 116.522 40.71 116.032 40.535ZM133.35 54.57H127.75C127.505 54.57 127.33 54.745 127.33 54.99V59.995C127.33 60.205 127.505 60.38 127.75 60.38H135.695C135.905 60.38 136.08 60.205 136.08 59.995C136.08 59.75 135.905 59.575 135.695 59.575H128.135V55.375H133.35C133.595 55.375 133.77 55.2 133.77 54.99C133.77 54.745 133.595 54.57 133.35 54.57ZM135.695 44.595H127.75C127.505 44.595 127.33 44.77 127.33 44.98V49.985C127.33 50.195 127.505 50.405 127.75 50.405H133.35C133.595 50.405 133.77 50.195 133.77 49.985C133.77 49.775 133.595 49.565 133.35 49.565H128.135V45.4H135.695C135.905 45.4 136.08 45.225 136.08 44.98C136.08 44.77 135.905 44.595 135.695 44.595ZM135.695 64.58H123.13V40.395H135.695C135.905 40.395 136.08 40.22 136.08 39.975C136.08 39.765 135.905 39.59 135.695 39.59H122.745C122.5 39.59 122.325 39.765 122.325 39.975V65C122.325 65.21 122.5 65.385 122.745 65.385H135.695C135.905 65.385 136.08 65.21 136.08 65C136.08 64.755 135.905 64.58 135.695 64.58ZM155.727 64.58H141.587V39.975C141.587 39.765 141.412 39.59 141.167 39.59C140.957 39.59 140.782 39.765 140.782 39.975V65C140.782 65.21 140.957 65.385 141.167 65.385H155.727C155.972 65.385 156.147 65.21 156.147 65C156.147 64.755 155.972 64.58 155.727 64.58ZM145.752 39.975V59.995C145.752 60.205 145.962 60.38 146.172 60.38H155.727C155.972 60.38 156.147 60.205 156.147 59.995C156.147 59.75 155.972 59.575 155.727 59.575H146.592V39.975C146.592 39.765 146.382 39.59 146.172 39.59C145.962 39.59 145.752 39.765 145.752 39.975ZM171.496 54.57H165.861C165.616 54.57 165.441 54.745 165.441 54.99V65C165.441 65.525 166.281 65.525 166.281 65V55.41H171.496C172.021 55.41 172.021 54.57 171.496 54.57ZM173.806 44.595H165.861C165.616 44.595 165.441 44.77 165.441 44.98V49.985C165.441 50.195 165.616 50.405 165.861 50.405H171.496C172.021 50.405 172.021 49.565 171.496 49.565H166.281V45.4H173.806C174.331 45.4 174.331 44.595 173.806 44.595ZM161.276 65V40.395H173.806C174.331 40.395 174.331 39.59 173.806 39.59H160.856C160.646 39.59 160.436 39.765 160.436 39.975V65C160.436 65.525 161.276 65.525 161.276 65Z" fill="url(#paint0_linear)"/>
<path d="M41.9878 26.58H40.9878V27.58H41.9878V26.58ZM46.9928 21.575H45.9928V22.575H46.9928V21.575ZM56.1278 25.58H41.9878V27.58H56.1278V25.58ZM42.9878 26.58V1.975H40.9878V26.58H42.9878ZM42.9878 1.975C42.9878 1.15646 42.3071 0.59 41.5678 0.59V2.59C41.3185 2.59 40.9878 2.37353 40.9878 1.975H42.9878ZM41.5678 0.59C40.8055 0.59 40.1828 1.21271 40.1828 1.975H42.1828C42.1828 2.31729 41.9101 2.59 41.5678 2.59V0.59ZM40.1828 1.975V27H42.1828V1.975H40.1828ZM40.1828 27C40.1828 27.7623 40.8055 28.385 41.5678 28.385V26.385C41.9101 26.385 42.1828 26.6577 42.1828 27H40.1828ZM41.5678 28.385H56.1278V26.385H41.5678V28.385ZM56.1278 28.385C56.8671 28.385 57.5478 27.8185 57.5478 27H55.5478C55.5478 26.6015 55.8785 26.385 56.1278 26.385V28.385ZM57.5478 27C57.5478 26.2027 56.9251 25.58 56.1278 25.58V27.58C56.0057 27.58 55.8498 27.5325 55.7226 27.4052C55.5953 27.278 55.5478 27.1221 55.5478 27H57.5478ZM45.1528 1.975V21.995H47.1528V1.975H45.1528ZM45.1528 21.995C45.1528 22.4436 45.375 22.7961 45.6197 23.0137C45.8628 23.2297 46.1989 23.38 46.5728 23.38V21.38C46.7367 21.38 46.8629 21.4428 46.9484 21.5188C47.0357 21.5964 47.1528 21.7564 47.1528 21.995H45.1528ZM46.5728 23.38H56.1278V21.38H46.5728V23.38ZM56.1278 23.38C56.8671 23.38 57.5478 22.8135 57.5478 21.995H55.5478C55.5478 21.5965 55.8785 21.38 56.1278 21.38V23.38ZM57.5478 21.995C57.5478 21.1977 56.9251 20.575 56.1278 20.575V22.575C56.0057 22.575 55.8498 22.5275 55.7226 22.4002C55.5953 22.273 55.5478 22.1171 55.5478 21.995H57.5478ZM56.1278 20.575H46.9928V22.575H56.1278V20.575ZM47.9928 21.575V1.975H45.9928V21.575H47.9928ZM47.9928 1.975C47.9928 1.52643 47.7707 1.17388 47.5259 0.95634C47.2829 0.740281 46.9467 0.59 46.5728 0.59V2.59C46.4089 2.59 46.2828 2.52722 46.1972 2.45116C46.11 2.37362 45.9928 2.21357 45.9928 1.975H47.9928ZM46.5728 0.59C46.1989 0.59 45.8628 0.740281 45.6197 0.95634C45.375 1.17388 45.1528 1.52643 45.1528 1.975H47.1528C47.1528 2.21357 47.0357 2.37362 46.9484 2.45116C46.8629 2.52722 46.7367 2.59 46.5728 2.59V0.59ZM86.2811 10.41L85.3289 10.7154L85.3324 10.7262L86.2811 10.41ZM86.2811 18.46L85.3325 18.1438L85.3301 18.1509L85.3278 18.158L86.2811 18.46ZM86.0011 17.935L86.3174 16.9863L86.2967 16.9794L86.2759 16.9735L86.0011 17.935ZM85.4761 18.215L86.4291 18.5179L86.4336 18.5039L86.4377 18.4897L85.4761 18.215ZM85.4761 10.655L86.4377 10.3803L86.4333 10.3652L86.4286 10.3502L85.4761 10.655ZM86.0011 10.935L85.8367 9.9486L85.7809 9.95792L85.7264 9.97348L86.0011 10.935ZM66.3311 18.53L67.2001 18.0352L67.1945 18.0253L67.1886 18.0155L66.3311 18.53ZM66.3311 10.34L65.4621 9.84516L65.4488 9.86863L65.4367 9.89278L66.3311 10.34ZM66.4711 10.935L65.8464 11.7159L65.9292 11.782L66.0239 11.8294L66.4711 10.935ZM67.0661 10.76L66.1913 10.2755L66.1811 10.2939L66.1717 10.3128L67.0661 10.76ZM67.0661 18.11L67.9409 17.6255L67.9325 17.6104L67.9236 17.5955L67.0661 18.11ZM66.4711 17.97L66.0239 17.0756L65.9896 17.0927L65.9566 17.1125L66.4711 17.97ZM87.2333 10.1046C85.312 4.1144 79.5987 0.064998 73.3311 0.064998V2.065C78.7535 2.065 83.6803 5.5756 85.3289 10.7154L87.2333 10.1046ZM73.3311 0.064998C64.8584 0.064998 58.9611 6.1932 58.9611 14.435H60.9611C60.9611 7.2768 65.9838 2.065 73.3311 2.065V0.064998ZM58.9611 14.435C58.9611 22.7101 64.8567 28.84 73.3311 28.84V26.84C65.9856 26.84 60.9611 21.6299 60.9611 14.435H58.9611ZM73.3311 28.84C79.597 28.84 85.3133 24.8267 87.2344 18.762L85.3278 18.158C83.679 23.3633 78.7552 26.84 73.3311 26.84V28.84ZM87.2298 18.7762C87.4954 17.9796 86.9863 17.2093 86.3174 16.9863L85.6849 18.8837C85.5255 18.8305 85.4238 18.7258 85.3682 18.6239C85.3117 18.5202 85.265 18.346 85.3325 18.1438L87.2298 18.7762ZM86.2759 16.9735C85.9538 16.8815 85.5684 16.8828 85.209 17.071C84.8425 17.263 84.6142 17.5916 84.5146 17.9403L86.4377 18.4897C86.408 18.5934 86.3197 18.747 86.137 18.8427C85.9614 18.9347 85.8034 18.9185 85.7264 18.8965L86.2759 16.9735ZM84.5231 17.9121C82.979 22.7695 78.4388 26 73.3311 26V28C79.2835 28 84.6132 24.2305 86.4291 18.5179L84.5231 17.9121ZM73.3311 26C69.866 26 66.9872 24.7703 64.976 22.7432C62.9636 20.7149 61.7661 17.834 61.7661 14.435H59.7661C59.7661 18.316 61.1411 21.7176 63.5562 24.1518C65.9725 26.5872 69.3763 28 73.3311 28V26ZM61.7661 14.435C61.7661 11.0363 62.9634 8.16493 64.9746 6.14571C66.9851 4.12731 69.864 2.905 73.3311 2.905V0.905C69.3783 0.905 65.9747 2.30769 63.5576 4.73429C61.1414 7.16007 59.7661 10.5537 59.7661 14.435H61.7661ZM73.3311 2.905C78.4401 2.905 82.9804 6.13703 84.5237 10.9598L86.4286 10.3502C84.6118 4.67297 79.2821 0.905 73.3311 0.905V2.905ZM84.5146 10.9297C84.6142 11.2784 84.8425 11.607 85.209 11.799C85.5684 11.9872 85.9538 11.9885 86.2759 11.8965L85.7264 9.97348C85.8034 9.95147 85.9614 9.93528 86.137 10.0273C86.3197 10.123 86.408 10.2766 86.4377 10.3803L84.5146 10.9297ZM86.1655 11.9214C86.6689 11.8375 86.9824 11.4888 87.1327 11.2007C87.2852 10.9084 87.3665 10.5039 87.2298 10.0938L85.3324 10.7262C85.2657 10.5261 85.312 10.3666 85.3595 10.2756C85.4049 10.1887 85.5434 9.99749 85.8367 9.9486L86.1655 11.9214ZM65.4621 19.0248C67.0676 21.8442 70.0521 23.66 73.3311 23.66V21.66C70.8002 21.66 68.4646 20.2558 67.2001 18.0352L65.4621 19.0248ZM73.3311 23.66C78.4234 23.66 82.4161 19.442 82.4161 14.435H80.4161C80.4161 18.388 77.2689 21.66 73.3311 21.66V23.66ZM82.4161 14.435C82.4161 9.46023 78.4207 5.245 73.3311 5.245V7.245C77.2716 7.245 80.4161 10.5198 80.4161 14.435H82.4161ZM73.3311 5.245C70.0603 5.245 67.0718 7.0185 65.4621 9.84516L67.2001 10.8348C68.4605 8.62149 70.792 7.245 73.3311 7.245V5.245ZM65.4367 9.89278C65.0992 10.5679 65.3424 11.3127 65.8464 11.7159L67.0958 10.1541C67.2498 10.2773 67.3531 10.5321 67.2256 10.7872L65.4367 9.89278ZM66.0239 11.8294C66.6437 12.1393 67.5685 11.9914 67.9606 11.2072L66.1717 10.3128C66.2637 10.1288 66.4182 10.0363 66.5384 10.0027C66.6545 9.97015 66.7888 9.97581 66.9183 10.0406L66.0239 11.8294ZM67.9409 11.2445C69.028 9.28171 71.0765 8.05 73.3311 8.05V6.05C70.3358 6.05 67.6243 7.68829 66.1913 10.2755L67.9409 11.2445ZM73.3311 8.05C76.811 8.05 79.5761 10.934 79.5761 14.435H81.5761C81.5761 9.88597 77.9713 6.05 73.3311 6.05V8.05ZM79.5761 14.435C79.5761 17.936 76.811 20.82 73.3311 20.82V22.82C77.9713 22.82 81.5761 18.984 81.5761 14.435H79.5761ZM73.3311 20.82C71.0765 20.82 69.028 19.5883 67.9409 17.6255L66.1913 18.5945C67.6243 21.1817 70.3358 22.82 73.3311 22.82V20.82ZM67.9236 17.5955C67.7013 17.225 67.3452 17.0355 67.0414 16.9626C66.7301 16.8879 66.3631 16.906 66.0239 17.0756L66.9183 18.8644C66.7891 18.929 66.6672 18.9296 66.5746 18.9074C66.4895 18.887 66.3259 18.82 66.2086 18.6245L67.9236 17.5955ZM65.9566 17.1125C65.5903 17.3323 65.4004 17.6837 65.326 17.9812C65.2516 18.2788 65.2538 18.6781 65.4736 19.0445L67.1886 18.0155C67.3035 18.2069 67.2882 18.3787 67.2663 18.4663C67.2444 18.5538 67.177 18.7127 66.9856 18.8275L65.9566 17.1125ZM93.9218 2.5L92.9933 2.8714L92.9958 2.87747L93.9218 2.5ZM98.7868 14.435L99.7153 14.0636L99.7128 14.0575L98.7868 14.435ZM99.5218 14.435L98.5958 14.0575L98.5834 14.0878L98.5731 14.1188L99.5218 14.435ZM104.387 2.5L105.313 2.87748L105.315 2.87139L104.387 2.5ZM104.177 2.01L104.493 1.06132L104.493 1.06131L104.177 2.01ZM103.652 2.22L104.578 2.59748L104.59 2.56723L104.6 2.53623L103.652 2.22ZM99.1718 13.21L98.2468 13.59L99.1754 15.8503L100.098 13.5875L99.1718 13.21ZM94.6568 2.22L93.7081 2.53623L93.7189 2.56852L93.7318 2.60001L94.6568 2.22ZM94.1668 2.01L94.4415 2.97152L94.4624 2.96555L94.483 2.95868L94.1668 2.01ZM109.112 2.22L108.217 1.77279L108.2 1.80734L108.186 1.84312L109.112 2.22ZM99.1718 26.65L98.2455 27.0269L99.1718 29.3034L100.098 27.0269L99.1718 26.65ZM89.2318 2.22L90.1581 1.84312L90.1435 1.80734L90.1262 1.77279L89.2318 2.22ZM88.6718 2.01L88.3556 1.06131L88.3277 1.07061L88.3004 1.08152L88.6718 2.01ZM88.4618 2.5L87.5333 2.8714L87.5357 2.87734L88.4618 2.5ZM98.7868 27.84L99.7153 27.4686L99.7129 27.4627L98.7868 27.84ZM99.5218 27.84L98.5962 27.4616L98.5887 27.4798L98.582 27.4983L99.5218 27.84ZM109.882 2.5L110.807 2.87844L110.81 2.87139L109.882 2.5ZM109.672 2.01L110.043 1.08152L109.996 1.06253L109.947 1.04847L109.672 2.01ZM92.9958 2.87747L97.8608 14.8125L99.7128 14.0575L94.8478 2.12253L92.9958 2.87747ZM97.8583 14.8064C98.3431 16.0184 100.07 15.953 100.47 14.7512L98.5731 14.1188C98.6776 13.8052 98.9543 13.6901 99.1389 13.6848C99.3495 13.6788 99.6099 13.8002 99.7153 14.0636L97.8583 14.8064ZM100.448 14.8125L105.313 2.87747L103.461 2.12253L98.5958 14.0575L100.448 14.8125ZM105.315 2.87139C105.547 2.2931 105.374 1.355 104.493 1.06132L103.861 2.95868C103.642 2.88578 103.508 2.71902 103.452 2.57162C103.402 2.44004 103.396 2.28508 103.458 2.12861L105.315 2.87139ZM104.493 1.06131C103.976 0.888949 103.012 0.97657 102.703 1.90377L104.6 2.53623C104.526 2.7602 104.353 2.89553 104.204 2.94979C104.07 2.99829 103.951 2.98888 103.861 2.95868L104.493 1.06131ZM102.726 1.84252L98.2458 12.8325L100.098 13.5875L104.578 2.59748L102.726 1.84252ZM100.097 12.83L95.5818 1.83999L93.7318 2.60001L98.2468 13.59L100.097 12.83ZM95.6055 1.90377C95.4788 1.52373 95.2002 1.22733 94.8357 1.08152C94.4914 0.943811 94.1388 0.96524 93.8506 1.06131L94.483 2.95868C94.4048 2.98476 94.2622 3.00619 94.0929 2.93848C93.9034 2.86267 93.7648 2.70627 93.7081 2.53623L95.6055 1.90377ZM93.8921 1.04848C92.9818 1.30857 92.7418 2.24269 92.9933 2.87139L94.8503 2.12861C94.9133 2.28607 94.911 2.45638 94.8453 2.60954C94.7693 2.78681 94.6159 2.92171 94.4415 2.97152L93.8921 1.04848ZM108.186 1.84312L98.2455 26.2731L100.098 27.0269L110.038 2.59688L108.186 1.84312ZM100.098 26.2731L90.1581 1.84312L88.3055 2.59688L98.2455 27.0269L100.098 26.2731ZM90.1262 1.77279C89.7545 1.02928 88.9374 0.86736 88.3556 1.06131L88.988 2.95868C88.8923 2.99059 88.7791 2.99501 88.6627 2.9545C88.5371 2.91083 88.4106 2.81376 88.3374 2.66721L90.1262 1.77279ZM88.3004 1.08152C87.9109 1.23731 87.6733 1.5474 87.5558 1.8217C87.4382 2.09601 87.3775 2.48192 87.5333 2.87139L89.3903 2.12861C89.4761 2.34308 89.4329 2.51899 89.3941 2.60954C89.3553 2.7001 89.2577 2.85269 89.0432 2.93847L88.3004 1.08152ZM87.5357 2.87734L97.8607 28.2173L99.7129 27.4627L89.3879 2.12266L87.5357 2.87734ZM97.8583 28.2114C98.0676 28.7346 98.5554 29.0984 99.1249 29.1152C99.7319 29.133 100.254 28.7535 100.462 28.1817L98.582 27.4983C98.6095 27.4225 98.6726 27.3179 98.7923 27.2337C98.9104 27.1506 99.0496 27.1121 99.1837 27.1161C99.4557 27.1241 99.646 27.2954 99.7153 27.4686L97.8583 28.2114ZM100.447 28.2184L110.807 2.87843L108.956 2.12156L98.5962 27.4616L100.447 28.2184ZM110.81 2.87139C110.966 2.48192 110.905 2.09601 110.788 1.8217C110.67 1.5474 110.433 1.23731 110.043 1.08152L109.3 2.93847C109.086 2.85269 108.988 2.7001 108.95 2.60954C108.911 2.51899 108.868 2.34307 108.953 2.1286L110.81 2.87139ZM109.947 1.04847C109.671 0.969879 109.336 0.947224 108.998 1.07021C108.644 1.19877 108.376 1.45549 108.217 1.77279L110.006 2.66721C109.953 2.77451 109.842 2.89123 109.681 2.94979C109.535 3.00277 109.427 2.98012 109.397 2.97152L109.947 1.04847ZM118.77 21.575H117.77V22.575H118.77V21.575ZM118.77 17.375V16.375H117.77V17.375H118.77ZM118.77 11.565H117.77V12.565H118.77V11.565ZM118.77 7.4V6.4H117.77V7.4H118.77ZM113.765 26.58H112.765V27.58H113.765V26.58ZM113.765 2.395V1.395H112.765V2.395H113.765ZM123.985 15.57H118.385V17.57H123.985V15.57ZM118.385 15.57C117.588 15.57 116.965 16.1927 116.965 16.99H118.965C118.965 17.1121 118.918 17.268 118.79 17.3952C118.663 17.5225 118.507 17.57 118.385 17.57V15.57ZM116.965 16.99V21.995H118.965V16.99H116.965ZM116.965 21.995C116.965 22.8135 117.646 23.38 118.385 23.38V21.38C118.634 21.38 118.965 21.5965 118.965 21.995H116.965ZM118.385 23.38H126.33V21.38H118.385V23.38ZM126.33 23.38C127.092 23.38 127.715 22.7573 127.715 21.995H125.715C125.715 21.6527 125.988 21.38 126.33 21.38V23.38ZM127.715 21.995C127.715 21.2557 127.149 20.575 126.33 20.575V22.575C125.932 22.575 125.715 22.2443 125.715 21.995H127.715ZM126.33 20.575H118.77V22.575H126.33V20.575ZM119.77 21.575V17.375H117.77V21.575H119.77ZM118.77 18.375H123.985V16.375H118.77V18.375ZM123.985 18.375C124.724 18.375 125.405 17.8085 125.405 16.99H123.405C123.405 16.5915 123.736 16.375 123.985 16.375V18.375ZM125.405 16.99C125.405 16.1927 124.782 15.57 123.985 15.57V17.57C123.863 17.57 123.707 17.5225 123.58 17.3952C123.453 17.268 123.405 17.1121 123.405 16.99H125.405ZM126.33 5.595H118.385V7.595H126.33V5.595ZM118.385 5.595C117.646 5.595 116.965 6.16146 116.965 6.98H118.965C118.965 7.37854 118.634 7.595 118.385 7.595V5.595ZM116.965 6.98V11.985H118.965V6.98H116.965ZM116.965 11.985C116.965 12.6927 117.535 13.405 118.385 13.405V11.405C118.562 11.405 118.713 11.4844 118.81 11.5871C118.9 11.6817 118.965 11.8182 118.965 11.985H116.965ZM118.385 13.405H123.985V11.405H118.385V13.405ZM123.985 13.405C124.836 13.405 125.405 12.6927 125.405 11.985H123.405C123.405 11.8182 123.471 11.6817 123.56 11.5871C123.657 11.4844 123.808 11.405 123.985 11.405V13.405ZM125.405 11.985C125.405 11.2773 124.836 10.565 123.985 10.565V12.565C123.808 12.565 123.657 12.4856 123.56 12.3829C123.471 12.2883 123.405 12.1518 123.405 11.985H125.405ZM123.985 10.565H118.77V12.565H123.985V10.565ZM119.77 11.565V7.4H117.77V11.565H119.77ZM118.77 8.4H126.33V6.4H118.77V8.4ZM126.33 8.4C127.149 8.4 127.715 7.7193 127.715 6.98H125.715C125.715 6.7307 125.932 6.4 126.33 6.4V8.4ZM127.715 6.98C127.715 6.21771 127.092 5.595 126.33 5.595V7.595C125.988 7.595 125.715 7.32229 125.715 6.98H127.715ZM126.33 25.58H113.765V27.58H126.33V25.58ZM114.765 26.58V2.395H112.765V26.58H114.765ZM113.765 3.395H126.33V1.395H113.765V3.395ZM126.33 3.395C127.149 3.395 127.715 2.7143 127.715 1.975H125.715C125.715 1.72569 125.932 1.395 126.33 1.395V3.395ZM127.715 1.975C127.715 1.21271 127.092 0.59 126.33 0.59V2.59C125.988 2.59 125.715 2.31729 125.715 1.975H127.715ZM126.33 0.59H113.38V2.59H126.33V0.59ZM113.38 0.59C112.641 0.59 111.96 1.15646 111.96 1.975H113.96C113.96 2.37353 113.629 2.59 113.38 2.59V0.59ZM111.96 1.975V27H113.96V1.975H111.96ZM111.96 27C111.96 27.8185 112.641 28.385 113.38 28.385V26.385C113.629 26.385 113.96 26.6015 113.96 27H111.96ZM113.38 28.385H126.33V26.385H113.38V28.385ZM126.33 28.385C127.092 28.385 127.715 27.7623 127.715 27H125.715C125.715 26.6577 125.988 26.385 126.33 26.385V28.385ZM127.715 27C127.715 26.2607 127.149 25.58 126.33 25.58V27.58C125.932 27.58 125.715 27.2493 125.715 27H127.715ZM7.80539 40.185L8.66866 39.6803L8.65379 39.6548L8.63744 39.6303L7.80539 40.185ZM12.8804 48.865L12.0171 49.3697L12.0246 49.3825L12.0324 49.395L12.8804 48.865ZM13.6154 48.865L14.4634 49.395L14.4704 49.3838L14.4771 49.3723L13.6154 48.865ZM18.7254 40.185L19.5871 40.6923L19.6045 40.6628L19.6198 40.6322L18.7254 40.185ZM18.5854 39.625L19.0999 38.7675L19.067 38.7477L19.0326 38.7306L18.5854 39.625ZM17.9904 39.765L17.2833 39.0579L17.1932 39.1479L17.1286 39.2577L17.9904 39.765ZM13.2304 47.85L12.3686 48.3573L13.2304 49.821L14.0921 48.3573L13.2304 47.85ZM8.47039 39.765L9.33216 39.2576L9.32788 39.2505L8.47039 39.765ZM7.94539 39.625L8.3926 40.5194L8.42695 40.5023L8.45989 40.4825L7.94539 39.625ZM24.1154 39.765L23.3345 39.1403L23.2994 39.1842L23.2694 39.2317L24.1154 39.765ZM15.4004 53.59L14.5544 53.0567L14.49 53.159L14.4517 53.2738L15.4004 53.59ZM16.1354 53.94L15.2897 53.4063L15.1354 53.6509V53.94H16.1354ZM24.8154 40.185L25.6611 40.7187L25.6671 40.7091L25.6729 40.6995L24.8154 40.185ZM24.6754 39.625L25.2301 38.793L25.2103 38.7798L25.1899 38.7675L24.6754 39.625ZM11.0954 53.59L11.9898 53.1428L11.9677 53.0986L11.9413 53.0567L11.0954 53.59ZM2.38039 39.765L3.22634 39.2317L3.19637 39.1842L3.16126 39.1403L2.38039 39.765ZM1.82039 39.625L1.30589 38.7675L1.24822 38.8021L1.19569 38.8441L1.82039 39.625ZM1.71539 40.185L2.56303 39.6544L2.53236 39.6054L2.49626 39.5603L1.71539 40.185ZM10.3254 53.94H11.3254V53.6528L11.173 53.4094L10.3254 53.94ZM6.94212 40.6897L12.0171 49.3697L13.7437 48.3603L8.66866 39.6803L6.94212 40.6897ZM12.0324 49.395C12.5991 50.3017 13.8967 50.3017 14.4634 49.395L12.7674 48.335C12.8642 48.1801 13.0461 48.075 13.2479 48.075C13.4497 48.075 13.6316 48.1801 13.7284 48.335L12.0324 49.395ZM14.4771 49.3723L19.5871 40.6923L17.8636 39.6777L12.7536 48.3577L14.4771 49.3723ZM19.6198 40.6322C19.9353 40.0013 19.7662 39.1673 19.0999 38.7675L18.0709 40.4825C17.7546 40.2927 17.7255 39.9487 17.831 39.7378L19.6198 40.6322ZM19.0326 38.7306C18.3082 38.3684 17.646 38.6951 17.2833 39.0579L18.6975 40.4721C18.6959 40.4737 18.6426 40.5275 18.5272 40.5576C18.3925 40.5927 18.249 40.5748 18.1382 40.5194L19.0326 38.7306ZM17.1286 39.2577L12.3686 47.3427L14.0921 48.3573L18.8521 40.2723L17.1286 39.2577ZM14.0921 47.3427L9.33213 39.2577L7.60865 40.2723L12.3686 48.3573L14.0921 47.3427ZM9.32788 39.2505C8.9596 38.6367 8.11351 38.3579 7.43089 38.7675L8.45989 40.4825C8.28181 40.5893 8.09966 40.5898 7.97102 40.5548C7.84389 40.5201 7.70601 40.4347 7.6129 40.2795L9.32788 39.2505ZM7.49818 38.7306C6.74228 39.1085 6.50461 40.0366 6.97334 40.7397L8.63744 39.6303C8.71464 39.7461 8.76241 39.9239 8.71176 40.118C8.6617 40.3099 8.53278 40.4493 8.3926 40.5194L7.49818 38.7306ZM23.2694 39.2317L14.5544 53.0567L16.2463 54.1233L24.9613 40.2983L23.2694 39.2317ZM14.4517 53.2738C14.3646 53.5351 14.3654 53.7358 14.3654 53.835H16.3654C16.3654 53.8256 16.3654 53.8207 16.3654 53.8164C16.3655 53.8126 16.3655 53.8116 16.3655 53.8122C16.3654 53.8141 16.3651 53.823 16.3637 53.8361C16.3622 53.8494 16.3599 53.8634 16.3569 53.8771C16.3539 53.8906 16.351 53.9005 16.3491 53.9062L14.4517 53.2738ZM14.3654 53.835V64.93H16.3654V53.835H14.3654ZM14.3654 64.93C14.3654 65.6483 14.8806 66.385 15.7504 66.385V64.385C15.935 64.385 16.1095 64.4664 16.2266 64.5981C16.3413 64.7272 16.3654 64.8604 16.3654 64.93H14.3654ZM15.7504 66.385C16.6201 66.385 17.1354 65.6483 17.1354 64.93H15.1354C15.1354 64.8604 15.1595 64.7272 15.2742 64.5981C15.3913 64.4664 15.5657 64.385 15.7504 64.385V66.385ZM17.1354 64.93V53.94H15.1354V64.93H17.1354ZM16.9811 54.4737L25.6611 40.7187L23.9697 39.6513L15.2897 53.4063L16.9811 54.4737ZM25.6729 40.6995C26.0457 40.0781 25.8951 39.2363 25.2301 38.793L24.1207 40.457C24.0138 40.3858 23.9206 40.2619 23.8863 40.1043C23.8541 39.956 23.8796 39.801 23.9579 39.6705L25.6729 40.6995ZM25.1899 38.7675C24.4735 38.3377 23.6979 38.6861 23.3345 39.1403L24.8963 40.3897C24.8327 40.4692 24.7442 40.5291 24.6347 40.5576C24.5235 40.5866 24.3434 40.592 24.1609 40.4825L25.1899 38.7675ZM12.1654 64.93V53.8H10.1654V64.93H12.1654ZM12.1654 53.8C12.1654 53.448 11.9958 53.1547 11.9898 53.1428L10.201 54.0372C10.2107 54.0567 10.2137 54.0628 10.2156 54.0669C10.2171 54.07 10.213 54.0617 10.2072 54.0461C10.197 54.019 10.1654 53.9288 10.1654 53.8H12.1654ZM11.9413 53.0567L3.22634 39.2317L1.53444 40.2983L10.2494 54.1233L11.9413 53.0567ZM3.16126 39.1403C2.79787 38.6861 2.02226 38.3377 1.30589 38.7675L2.33489 40.4825C2.15243 40.592 1.97228 40.5866 1.86109 40.5576C1.75162 40.5291 1.66309 40.4692 1.59952 40.3897L3.16126 39.1403ZM1.19569 38.8441C0.749282 39.2013 0.334217 40.0593 0.934522 40.8097L2.49626 39.5603C2.63647 39.7356 2.66118 39.9468 2.62694 40.1043C2.59615 40.2459 2.52195 40.3444 2.44509 40.4059L1.19569 38.8441ZM0.867756 40.7156L9.47776 54.4706L11.173 53.4094L2.56303 39.6544L0.867756 40.7156ZM9.32539 53.94V64.93H11.3254V53.94H9.32539ZM9.32539 64.93C9.32539 65.28 9.43798 65.6542 9.7165 65.9491C9.99839 66.2476 10.3761 66.385 10.7454 66.385V64.385C10.8697 64.385 11.0374 64.4349 11.1705 64.5759C11.3003 64.7133 11.3254 64.86 11.3254 64.93H9.32539ZM10.7454 66.385C11.1147 66.385 11.4924 66.2476 11.7743 65.9491C12.0528 65.6542 12.1654 65.28 12.1654 64.93H10.1654C10.1654 64.86 10.1905 64.7133 10.3203 64.5759C10.4534 64.4349 10.6211 64.385 10.7454 64.385V66.385ZM52.1014 48.41L51.1492 48.7154L51.1528 48.7262L52.1014 48.41ZM52.1014 56.46L51.1528 56.1438L51.1504 56.1509L51.1481 56.158L52.1014 56.46ZM51.8214 55.935L52.1377 54.9863L52.1171 54.9794L52.0962 54.9735L51.8214 55.935ZM51.2964 56.215L52.2495 56.5179L52.2539 56.5039L52.258 56.4897L51.2964 56.215ZM51.2964 48.655L52.258 48.3803L52.2537 48.3652L52.2489 48.3502L51.2964 48.655ZM51.8214 48.935L51.6571 47.9486L51.6012 47.9579L51.5467 47.9735L51.8214 48.935ZM32.1514 56.53L33.0204 56.0352L33.0148 56.0253L33.0089 56.0155L32.1514 56.53ZM32.1514 48.34L31.2825 47.8452L31.2691 47.8686L31.257 47.8928L32.1514 48.34ZM32.2914 48.935L31.6667 49.7159L31.7495 49.782L31.8442 49.8294L32.2914 48.935ZM32.8864 48.76L32.0117 48.2755L32.0014 48.2939L31.992 48.3128L32.8864 48.76ZM32.8864 56.11L33.7612 55.6255L33.7528 55.6104L33.7439 55.5955L32.8864 56.11ZM32.2914 55.97L31.8442 55.0756L31.8099 55.0927L31.777 55.1125L32.2914 55.97ZM53.0537 48.1046C51.1323 42.1144 45.4191 38.065 39.1514 38.065V40.065C44.5738 40.065 49.5006 43.5756 51.1492 48.7154L53.0537 48.1046ZM39.1514 38.065C30.6787 38.065 24.7814 44.1932 24.7814 52.435H26.7814C26.7814 45.2768 31.8042 40.065 39.1514 40.065V38.065ZM24.7814 52.435C24.7814 60.7101 30.677 66.84 39.1514 66.84V64.84C31.8059 64.84 26.7814 59.6299 26.7814 52.435H24.7814ZM39.1514 66.84C45.4173 66.84 51.1336 62.8267 53.0548 56.762L51.1481 56.158C49.4993 61.3633 44.5755 64.84 39.1514 64.84V66.84ZM53.0501 56.7762C53.3157 55.9796 52.8066 55.2093 52.1377 54.9863L51.5052 56.8837C51.3458 56.8305 51.2442 56.7258 51.1886 56.6239C51.132 56.5202 51.0854 56.346 51.1528 56.1438L53.0501 56.7762ZM52.0962 54.9735C51.7741 54.8815 51.3887 54.8828 51.0293 55.071C50.6628 55.263 50.4346 55.5916 50.3349 55.9403L52.258 56.4897C52.2283 56.5934 52.1401 56.747 51.9573 56.8427C51.7817 56.9347 51.6238 56.9185 51.5467 56.8965L52.0962 54.9735ZM50.3434 55.9121C48.7994 60.7695 44.2591 64 39.1514 64V66C45.1038 66 50.4335 62.2305 52.2495 56.5179L50.3434 55.9121ZM39.1514 64C35.6863 64 32.8076 62.7703 30.7963 60.7432C28.7839 58.7149 27.5864 55.834 27.5864 52.435H25.5864C25.5864 56.316 26.9615 59.7176 29.3766 62.1518C31.7928 64.5872 35.1966 66 39.1514 66V64ZM27.5864 52.435C27.5864 49.0363 28.7837 46.1649 30.7949 44.1457C32.8054 42.1273 35.6843 40.905 39.1514 40.905V38.905C35.1986 38.905 31.795 40.3077 29.3779 42.7343C26.9617 45.1601 25.5864 48.5537 25.5864 52.435H27.5864ZM39.1514 40.905C44.2605 40.905 48.8007 44.137 50.344 48.9598L52.2489 48.3502C50.4322 42.673 45.1024 38.905 39.1514 38.905V40.905ZM50.3349 48.9297C50.4346 49.2784 50.6628 49.607 51.0293 49.799C51.3887 49.9872 51.7741 49.9885 52.0962 49.8965L51.5467 47.9735C51.6238 47.9515 51.7817 47.9353 51.9573 48.0273C52.1401 48.123 52.2283 48.2766 52.258 48.3803L50.3349 48.9297ZM51.9858 49.9214C52.4892 49.8375 52.8027 49.4888 52.953 49.2007C53.1055 48.9084 53.1868 48.5039 53.0501 48.0938L51.1528 48.7262C51.086 48.5261 51.1324 48.3666 51.1799 48.2756C51.2252 48.1887 51.3637 47.9975 51.6571 47.9486L51.9858 49.9214ZM31.2825 57.0248C32.8879 59.8442 35.8724 61.66 39.1514 61.66V59.66C36.6205 59.66 34.285 58.2558 33.0204 56.0352L31.2825 57.0248ZM39.1514 61.66C44.2437 61.66 48.2364 57.442 48.2364 52.435H46.2364C46.2364 56.388 43.0892 59.66 39.1514 59.66V61.66ZM48.2364 52.435C48.2364 47.4602 44.241 43.245 39.1514 43.245V45.245C43.0919 45.245 46.2364 48.5198 46.2364 52.435H48.2364ZM39.1514 43.245C35.8806 43.245 32.8921 45.0185 31.2825 47.8452L33.0204 48.8348C34.2808 46.6215 36.6123 45.245 39.1514 45.245V43.245ZM31.257 47.8928C30.9195 48.5679 31.1627 49.3127 31.6667 49.7159L32.9161 48.1541C33.0701 48.2773 33.1734 48.5321 33.0459 48.7872L31.257 47.8928ZM31.8442 49.8294C32.464 50.1393 33.3888 49.9914 33.7809 49.2072L31.992 48.3128C32.084 48.1288 32.2385 48.0363 32.3587 48.0027C32.4748 47.9701 32.6091 47.9758 32.7387 48.0406L31.8442 49.8294ZM33.7612 49.2445C34.8483 47.2817 36.8968 46.05 39.1514 46.05V44.05C36.1561 44.05 33.4446 45.6883 32.0117 48.2755L33.7612 49.2445ZM39.1514 46.05C42.6313 46.05 45.3964 48.934 45.3964 52.435H47.3964C47.3964 47.886 43.7916 44.05 39.1514 44.05V46.05ZM45.3964 52.435C45.3964 55.936 42.6313 58.82 39.1514 58.82V60.82C43.7916 60.82 47.3964 56.984 47.3964 52.435H45.3964ZM39.1514 58.82C36.8968 58.82 34.8483 57.5883 33.7612 55.6255L32.0117 56.5945C33.4446 59.1817 36.1561 60.82 39.1514 60.82V58.82ZM33.7439 55.5955C33.5217 55.225 33.1656 55.0355 32.8617 54.9626C32.5504 54.8879 32.1834 54.906 31.8442 55.0756L32.7387 56.8644C32.6094 56.929 32.4875 56.9296 32.3949 56.9074C32.3098 56.887 32.1462 56.82 32.029 56.6245L33.7439 55.5955ZM31.777 55.1125C31.4106 55.3323 31.2207 55.6837 31.1463 55.9812C31.0719 56.2788 31.0741 56.6781 31.294 57.0445L33.0089 56.0155C33.1238 56.2069 33.1085 56.3787 33.0866 56.4663C33.0647 56.5538 32.9973 56.7127 32.8059 56.8275L31.777 55.1125ZM60.7721 55.865C60.7721 57.4326 61.3223 58.8298 62.3148 59.8388C63.3085 60.8489 64.6919 61.415 66.2521 61.415V59.415C65.1873 59.415 64.3307 59.0361 63.7406 58.4362C63.1494 57.8352 62.7721 56.9574 62.7721 55.865H60.7721ZM66.2521 61.415C69.4345 61.415 71.7671 59.0721 71.7671 55.865H69.7671C69.7671 57.9779 68.3197 59.415 66.2521 59.415V61.415ZM71.7671 55.865V40.01H69.7671V55.865H71.7671ZM71.7671 40.01C71.7671 39.1915 71.0864 38.625 70.3471 38.625V40.625C70.0978 40.625 69.7671 40.4085 69.7671 40.01H71.7671ZM70.3471 38.625C69.5848 38.625 68.9621 39.2477 68.9621 40.01H70.9621C70.9621 40.3523 70.6894 40.625 70.3471 40.625V38.625ZM68.9621 40.01V55.865H70.9621V40.01H68.9621ZM68.9621 55.865C68.9621 56.7362 68.6682 57.4215 68.2176 57.8842C67.7695 58.3443 67.1079 58.645 66.2521 58.645V60.645C67.6013 60.645 68.7947 60.1582 69.6504 59.2796C70.5036 58.4035 70.9621 57.1988 70.9621 55.865H68.9621ZM66.2521 58.645C64.653 58.645 63.5421 57.5365 63.5421 55.865H61.5421C61.5421 58.6035 63.5112 60.645 66.2521 60.645V58.645ZM63.5421 55.865V40.01H61.5421V55.865H63.5421ZM63.5421 40.01C63.5421 39.2477 62.9194 38.625 62.1571 38.625V40.625C61.8148 40.625 61.5421 40.3523 61.5421 40.01H63.5421ZM62.1571 38.625C61.3948 38.625 60.7721 39.2477 60.7721 40.01H62.7721C62.7721 40.3523 62.4994 40.625 62.1571 40.625V38.625ZM60.7721 40.01V55.865H62.7721V40.01H60.7721ZM74.0021 40.01V56.145H76.0021V40.01H74.0021ZM74.0021 56.145C74.0021 60.7925 70.6165 63.755 66.2521 63.755V65.755C71.6178 65.755 76.0021 61.9975 76.0021 56.145H74.0021ZM66.2521 63.755C63.9484 63.755 62.0199 62.9639 60.672 61.6501C59.3266 60.3389 58.5021 58.4515 58.5021 56.145H56.5021C56.5021 58.9485 57.5151 61.3661 59.276 63.0824C61.0343 64.7961 63.4808 65.755 66.2521 65.755V63.755ZM58.5021 56.145V40.01H56.5021V56.145H58.5021ZM58.5021 40.01C58.5021 39.2477 57.8794 38.625 57.1171 38.625V40.625C56.7748 40.625 56.5021 40.3523 56.5021 40.01H58.5021ZM57.1171 38.625C56.3778 38.625 55.6971 39.1915 55.6971 40.01H57.6971C57.6971 40.4085 57.3664 40.625 57.1171 40.625V38.625ZM55.6971 40.01V56.145H57.6971V40.01H55.6971ZM55.6971 56.145C55.6971 62.2492 60.227 66.56 66.2521 66.56V64.56C61.2872 64.56 57.6971 61.1008 57.6971 56.145H55.6971ZM66.2521 66.56C72.1147 66.56 76.8071 62.4459 76.8071 56.145H74.8071C74.8071 61.2541 71.0995 64.56 66.2521 64.56V66.56ZM76.8071 56.145V40.01H74.8071V56.145H76.8071ZM76.8071 40.01C76.8071 39.2477 76.1844 38.625 75.4221 38.625V40.625C75.0798 40.625 74.8071 40.3523 74.8071 40.01H76.8071ZM75.4221 38.625C74.6828 38.625 74.0021 39.1915 74.0021 40.01H76.0021C76.0021 40.4085 75.6714 40.625 75.4221 40.625V38.625ZM93.5589 64.755L92.7589 65.355L92.7683 65.3675L92.7781 65.3797L93.5589 64.755ZM87.0489 56.075L87.8489 55.475L87.8396 55.4625L87.8298 55.4503L87.0489 56.075ZM86.4889 55.97L85.9745 55.1125L85.8689 55.1758L85.7818 55.2629L86.4889 55.97ZM86.3489 56.32H87.3489V56.1577L87.2976 56.0038L86.3489 56.32ZM87.1539 57.51L87.9557 56.9123L86.1539 54.4954V57.51H87.1539ZM92.8939 65.21L93.726 64.6553L93.7114 64.6334L93.6957 64.6123L92.8939 65.21ZM93.4889 65.315L94.1136 66.0959L94.1136 66.0959L93.4889 65.315ZM82.1489 40.395V39.395H81.1489V40.395H82.1489ZM91.2839 55.27L92.0745 54.6576L92.0358 54.6076L91.991 54.5629L91.2839 55.27ZM98.9839 65.21L98.1934 65.8224L98.2043 65.8365L98.2157 65.8502L98.9839 65.21ZM99.5789 65.28L99.0644 64.4225L98.9589 64.4858L98.8718 64.5729L99.5789 65.28ZM99.6489 64.755L98.8575 65.3663L98.8627 65.373L98.8681 65.3797L99.6489 64.755ZM92.4039 55.375L92.2993 54.3805L90.5171 54.5681L91.6125 55.9863L92.4039 55.375ZM91.1439 51.37C93.2935 51.37 95.1189 49.7438 95.1189 47.5H93.1189C93.1189 48.5462 92.2844 49.37 91.1439 49.37V51.37ZM95.1189 47.5C95.1189 45.229 93.3017 43.595 91.1439 43.595V45.595C92.2762 45.595 93.1189 46.411 93.1189 47.5H95.1189ZM91.1439 43.595H86.7339V45.595H91.1439V43.595ZM86.7339 43.595C86.3236 43.595 85.9462 43.7631 85.684 44.0646C85.4392 44.3461 85.3402 44.6897 85.3402 44.9975C85.3402 45.3053 85.4392 45.6489 85.684 45.9304C85.9462 46.2319 86.3236 46.4 86.7339 46.4V44.4C86.8818 44.4 87.0623 44.4674 87.1932 44.618C87.3068 44.7486 87.3402 44.8909 87.3402 44.9975C87.3402 45.1041 87.3068 45.2464 87.1932 45.377C87.0623 45.5276 86.8818 45.595 86.7339 45.595V43.595ZM86.7339 46.4H91.1439V44.4H86.7339V46.4ZM91.1439 46.4C91.8363 46.4 92.3139 46.8804 92.3139 47.5H94.3139C94.3139 45.6696 92.8316 44.4 91.1439 44.4V46.4ZM92.3139 47.5C92.3139 48.0954 91.825 48.6 91.1439 48.6V50.6C92.8429 50.6 94.3139 49.2846 94.3139 47.5H92.3139ZM91.1439 48.6H89.7439V50.6H91.1439V48.6ZM89.7439 48.6C89.0046 48.6 88.3239 49.1665 88.3239 49.985H90.3239C90.3239 50.3835 89.9933 50.6 89.7439 50.6V48.6ZM88.3239 49.985C88.3239 50.8035 89.0046 51.37 89.7439 51.37V49.37C89.9933 49.37 90.3239 49.5865 90.3239 49.985H88.3239ZM89.7439 51.37H91.1439V49.37H89.7439V51.37ZM94.3589 64.155L87.8489 55.475L86.2489 56.675L92.7589 65.355L94.3589 64.155ZM87.8298 55.4503C87.3709 54.8767 86.5701 54.7551 85.9745 55.1125L87.0034 56.8275C86.7578 56.9749 86.447 56.9233 86.2681 56.6997L87.8298 55.4503ZM85.7818 55.2629C85.6575 55.3872 85.5329 55.5514 85.4473 55.7511C85.3669 55.9387 85.277 56.2665 85.4003 56.6362L87.2976 56.0038C87.3859 56.2685 87.3135 56.4738 87.2856 56.5389C87.2525 56.6161 87.2154 56.6578 87.1961 56.6771L85.7818 55.2629ZM85.3489 56.32V65H87.3489V56.32H85.3489ZM85.3489 65C85.3489 65.3739 85.4992 65.71 85.7153 65.9531C85.9328 66.1979 86.2854 66.42 86.7339 66.42V64.42C86.9725 64.42 87.1326 64.5371 87.2101 64.6244C87.2862 64.71 87.3489 64.8361 87.3489 65H85.3489ZM86.7339 66.42C87.1642 66.42 87.5107 66.215 87.7298 65.9959C87.9489 65.7768 88.1539 65.4302 88.1539 65H86.1539C86.1539 64.7798 86.254 64.6432 86.3156 64.5816C86.3772 64.52 86.5137 64.42 86.7339 64.42V66.42ZM88.1539 65V57.51H86.1539V65H88.1539ZM86.3522 58.1077L92.0922 65.8077L93.6957 64.6123L87.9557 56.9123L86.3522 58.1077ZM92.0619 65.7647C92.5221 66.4551 93.4736 66.6079 94.1136 66.0959L92.8643 64.5341C93.1543 64.3021 93.5458 64.3849 93.726 64.6553L92.0619 65.7647ZM94.1136 66.0959C94.6916 65.6335 94.847 64.7643 94.3398 64.1303L92.7781 65.3797C92.5508 65.0957 92.6363 64.7165 92.8643 64.5341L94.1136 66.0959ZM83.1489 65V40.395H81.1489V65H83.1489ZM82.1489 41.395H91.5639V39.395H82.1489V41.395ZM91.5639 41.395C94.9092 41.395 97.5639 44.1445 97.5639 47.5H99.5639C99.5639 43.0855 96.0587 39.395 91.5639 39.395V41.395ZM97.5639 47.5C97.5639 50.8173 94.9123 53.57 91.5639 53.57V55.57C96.0556 55.57 99.5639 51.8827 99.5639 47.5H97.5639ZM91.5639 53.57C90.7454 53.57 90.1789 54.2507 90.1789 54.99H92.1789C92.1789 55.2393 91.9625 55.57 91.5639 55.57V53.57ZM90.1789 54.99C90.1789 55.2935 90.2769 55.6771 90.5768 55.9771L91.991 54.5629C92.151 54.7229 92.1789 54.8965 92.1789 54.99H90.1789ZM90.4934 55.8824L98.1934 65.8224L99.7745 64.5976L92.0745 54.6576L90.4934 55.8824ZM98.2157 65.8502C98.4284 66.1054 98.7486 66.3305 99.1574 66.3817C99.5888 66.4356 99.9951 66.278 100.286 65.9871L98.8718 64.5729C98.9878 64.457 99.1841 64.3694 99.4055 64.3971C99.6043 64.422 99.7145 64.5246 99.7522 64.5698L98.2157 65.8502ZM100.093 66.1375C100.86 65.6777 100.894 64.71 100.43 64.1303L98.8681 65.3797C98.6843 65.15 98.6481 64.6723 99.0644 64.4225L100.093 66.1375ZM100.44 64.1437L93.1954 54.7637L91.6125 55.9863L98.8575 65.3663L100.44 64.1437ZM92.5086 56.3695C97.0249 55.8941 100.404 51.9841 100.404 47.5H98.4039C98.4039 50.9959 95.763 54.0159 92.2993 54.3805L92.5086 56.3695ZM100.404 47.5C100.404 42.628 96.5113 38.555 91.5639 38.555V40.555C95.3666 40.555 98.4039 43.692 98.4039 47.5H100.404ZM91.5639 38.555H81.7289V40.555H91.5639V38.555ZM81.7289 38.555C81.2804 38.555 80.9278 38.7771 80.7103 39.0219C80.4942 39.265 80.3439 39.6011 80.3439 39.975H82.3439C82.3439 40.1389 82.2812 40.265 82.2051 40.3506C82.1276 40.4378 81.9675 40.555 81.7289 40.555V38.555ZM80.3439 39.975V65H82.3439V39.975H80.3439ZM80.3439 65C80.3439 65.3739 80.4942 65.71 80.7103 65.9531C80.9278 66.1979 81.2804 66.42 81.7289 66.42V64.42C81.9675 64.42 82.1276 64.5371 82.2051 64.6244C82.2812 64.71 82.3439 64.8361 82.3439 65H80.3439ZM81.7289 66.42C82.5793 66.42 83.1489 65.7077 83.1489 65H81.1489C81.1489 64.8332 81.2145 64.6967 81.3038 64.6021C81.4008 64.4994 81.5518 64.42 81.7289 64.42V66.42ZM102.137 63.705L101.663 64.5855L101.676 64.5927L101.69 64.5994L102.137 63.705ZM106.127 65.14L106.357 64.1667L106.344 64.1638L106.127 65.14ZM108.892 48.76L108.274 49.5463L108.282 49.5522L108.289 49.5579L108.892 48.76ZM108.122 47.29H109.122V47.2753L109.122 47.2606L108.122 47.29ZM110.082 45.33L109.976 44.3356L109.963 44.337L109.95 44.3388L110.082 45.33ZM115.087 46.31L115.481 45.3909L115.47 45.3861L115.459 45.3815L115.087 46.31ZM115.402 45.575L115.796 44.6558L115.785 44.651L115.402 45.575ZM110.117 44.525L110.161 45.5241L110.17 45.5236L110.18 45.5231L110.117 44.525ZM107.317 47.395L106.318 47.4384L106.319 47.4496L106.319 47.4608L107.317 47.395ZM115.297 53.135L114.613 53.8641L114.621 53.8718L115.297 53.135ZM115.367 62.655L116.074 63.3621L116.079 63.3569L115.367 62.655ZM102.557 63.005L103.02 62.1184L103.012 62.1144L103.004 62.1106L102.557 63.005ZM116.032 40.535L116.369 39.5933L116.362 39.5908L116.354 39.5883L116.032 40.535ZM112.147 39.555L112.289 38.565L112.283 38.5642L112.147 39.555ZM111.587 56.25L112.261 55.5115L112.244 55.4956L112.226 55.4804L111.587 56.25ZM111.692 59.015L111.017 58.2778L111.015 58.2791L111.692 59.015ZM103.222 57.79L103.795 56.9702L103.786 56.964L103.777 56.9579L103.222 57.79ZM102.767 58.455L103.359 57.649L103.348 57.6407L103.336 57.6328L102.767 58.455ZM110.047 60.52L110.111 61.518L110.111 61.518L110.047 60.52ZM113.057 57.615L114.055 57.5513L114.055 57.5499L113.057 57.615ZM105.147 52.015L104.48 52.76L104.486 52.7653L104.492 52.7704L105.147 52.015ZM104.937 42.46L105.67 43.14L105.674 43.1365L104.937 42.46ZM115.752 41.27L116.146 40.3509L116.113 40.3367L116.079 40.3249L115.752 41.27ZM101.69 64.5994C103.163 65.3359 104.57 65.8184 105.91 66.1162L106.344 64.1638C105.164 63.9016 103.912 63.4741 102.584 62.8106L101.69 64.5994ZM105.897 66.1132C109.261 66.908 112.54 66.6117 115.022 65.1638C117.55 63.6893 119.132 61.085 119.132 57.58H117.132C117.132 60.41 115.897 62.3382 114.015 63.4362C112.087 64.5608 109.363 64.877 106.357 64.1668L105.897 66.1132ZM119.132 57.58C119.132 53.9103 116.875 51.7337 114.616 50.3825C113.491 49.7091 112.325 49.2139 111.382 48.8248C110.899 48.6259 110.493 48.4619 110.151 48.3084C109.797 48.1497 109.595 48.0375 109.495 47.9621L108.289 49.5579C108.583 49.78 108.965 49.9686 109.332 50.1332C109.711 50.3031 110.162 50.485 110.619 50.6738C111.556 51.0602 112.602 51.5078 113.589 52.0987C115.557 53.2763 117.132 54.9147 117.132 57.58H119.132ZM109.51 47.9737C109.232 47.7548 109.122 47.4721 109.122 47.29H107.122C107.122 48.1579 107.573 48.9952 108.274 49.5463L109.51 47.9737ZM109.122 47.2606C109.113 46.9697 109.212 46.7958 109.361 46.6627C109.537 46.5057 109.831 46.3724 110.214 46.3212L109.95 44.3388C109.284 44.4276 108.58 44.6793 108.03 45.1698C107.453 45.6842 107.096 46.4203 107.123 47.3194L109.122 47.2606ZM110.188 46.3244C111.571 46.1772 113.508 46.7554 114.716 47.2385L115.459 45.3815C114.216 44.8846 111.883 44.1328 109.976 44.3356L110.188 46.3244ZM114.693 47.2291C115.065 47.3885 115.475 47.3884 115.837 47.2183C116.177 47.0587 116.408 46.7816 116.531 46.4939C116.655 46.2062 116.696 45.8478 116.577 45.4917C116.451 45.1123 116.168 44.8152 115.796 44.6559L115.008 46.4941C114.881 46.4398 114.743 46.3133 114.68 46.1242C114.625 45.9585 114.649 45.81 114.693 45.7061C114.738 45.6021 114.829 45.4825 114.987 45.4082C115.167 45.3235 115.354 45.3365 115.481 45.3909L114.693 47.2291ZM115.785 44.651C113.656 43.7703 111.927 43.4099 110.055 43.5269L110.18 45.5231C111.668 45.4301 113.088 45.6997 115.02 46.499L115.785 44.651ZM110.074 43.5259C107.996 43.6163 106.221 45.1966 106.318 47.4384L108.316 47.3516C108.274 46.3734 109.019 45.5737 110.161 45.5241L110.074 43.5259ZM106.319 47.4608C106.39 48.5278 106.826 49.3254 107.506 49.9299C108.135 50.4899 108.949 50.8594 109.719 51.1765C111.334 51.8417 113.064 52.4099 114.613 53.8641L115.982 52.4059C114.101 50.6401 111.946 49.9308 110.481 49.3273C109.71 49.01 109.185 48.7473 108.835 48.4356C108.535 48.1684 108.35 47.8547 108.315 47.3292L106.319 47.4608ZM114.621 53.8718C117.099 56.146 116.718 59.8601 114.655 61.9531L116.079 63.3569C118.777 60.6199 119.445 55.584 115.973 52.3982L114.621 53.8718ZM114.66 61.9479C113.354 63.2535 111.458 63.8222 109.321 63.7858C107.185 63.7494 104.913 63.1059 103.02 62.1184L102.095 63.8916C104.227 65.0041 106.802 65.7431 109.286 65.7855C111.769 65.8278 114.265 65.1715 116.074 63.3621L114.66 61.9479ZM103.004 62.1106C102.205 61.7107 101.443 62.1213 101.126 62.6728C100.971 62.9418 100.886 63.2935 100.963 63.6635C101.047 64.0604 101.301 64.3907 101.663 64.5855L102.611 62.8245C102.746 62.8968 102.878 63.0477 102.921 63.2521C102.958 63.4296 102.914 63.5757 102.86 63.6697C102.805 63.7656 102.707 63.8648 102.558 63.9182C102.389 63.9786 102.222 63.9553 102.11 63.8994L103.004 62.1106ZM116.354 39.5883C114.657 39.0106 113.337 38.7148 112.289 38.565L112.006 40.5449C112.918 40.6752 114.117 40.9394 115.71 41.4816L116.354 39.5883ZM112.283 38.5642C109.247 38.1494 106.492 38.8086 104.478 40.4028C102.453 42.0061 101.277 44.4772 101.277 47.465H103.277C103.277 45.0278 104.219 43.1589 105.72 41.971C107.232 40.7739 109.413 40.1906 112.012 40.5458L112.283 38.5642ZM101.277 47.465C101.277 51.224 103.536 53.3514 105.819 54.6552C106.95 55.3007 108.125 55.7694 109.068 56.1458C109.551 56.3383 109.959 56.5011 110.298 56.6567C110.649 56.8175 110.849 56.9368 110.949 57.0196L112.226 55.4804C111.914 55.222 111.515 55.0142 111.132 54.8386C110.737 54.6576 110.276 54.4746 109.809 54.2881C108.853 53.9066 107.803 53.4849 106.811 52.9185C104.851 51.7986 103.277 50.216 103.277 47.465H101.277ZM110.913 56.9885C111.374 57.4093 111.339 57.9823 111.017 58.2778L112.368 59.7522C113.726 58.5077 113.411 56.5607 112.261 55.5115L110.913 56.9885ZM111.015 58.2791C110.786 58.49 110.404 58.6595 109.826 58.7259C109.254 58.7918 108.564 58.7467 107.818 58.6021C106.318 58.3109 104.771 57.6521 103.795 56.9702L102.65 58.6098C103.878 59.4679 105.691 60.2266 107.437 60.5654C108.315 60.7358 109.22 60.8088 110.055 60.7128C110.885 60.6174 111.724 60.345 112.369 59.7509L111.015 58.2791ZM103.777 56.9579C103.017 56.4516 102.214 56.8235 101.859 57.3099C101.675 57.5611 101.549 57.9075 101.594 58.2941C101.642 58.706 101.871 59.051 102.198 59.2772L103.336 57.6328C103.436 57.7015 103.556 57.8497 103.581 58.0636C103.603 58.2522 103.54 58.3995 103.474 58.4888C103.409 58.5778 103.304 58.6635 103.154 58.7013C102.982 58.7446 102.8 58.7106 102.668 58.622L103.777 56.9579ZM102.175 59.261C104.638 61.0699 107.717 61.6699 110.111 61.518L109.984 59.522C107.967 59.6501 105.376 59.1301 103.359 57.649L102.175 59.261ZM110.111 61.518C112.083 61.3921 114.208 59.9475 114.055 57.5513L112.059 57.6787C112.116 58.5725 111.301 59.4379 109.984 59.522L110.111 61.518ZM114.055 57.5499C113.986 56.4843 113.562 55.6782 112.891 55.063C112.266 54.4899 111.46 54.1145 110.69 53.7982C109.072 53.1332 107.359 52.6099 105.802 51.2596L104.492 52.7704C106.365 54.3951 108.503 55.0618 109.93 55.6481C110.682 55.9574 111.197 56.2229 111.539 56.5368C111.835 56.8087 112.024 57.1357 112.059 57.6801L114.055 57.5499ZM105.814 51.27C103.318 49.0353 103.715 45.248 105.67 43.14L104.204 41.78C101.679 44.502 100.956 49.6047 104.48 52.76L105.814 51.27ZM105.674 43.1365C107.985 40.62 111.705 40.9285 115.425 42.2151L116.079 40.3249C112.31 39.0215 107.419 38.28 104.201 41.7835L105.674 43.1365ZM115.358 42.1891C115.739 42.3522 116.163 42.3477 116.532 42.156C116.874 41.9787 117.09 41.6835 117.197 41.3956C117.304 41.1074 117.331 40.7511 117.201 40.4027C117.06 40.0276 116.763 39.734 116.369 39.5933L115.696 41.4767C115.547 41.4235 115.398 41.2918 115.328 41.1037C115.267 40.9423 115.285 40.7983 115.323 40.6981C115.36 40.5984 115.444 40.4673 115.611 40.3807C115.806 40.2798 116.011 40.2928 116.146 40.3509L115.358 42.1891ZM128.135 59.575H127.135V60.575H128.135V59.575ZM128.135 55.375V54.375H127.135V55.375H128.135ZM128.135 49.565H127.135V50.565H128.135V49.565ZM128.135 45.4V44.4H127.135V45.4H128.135ZM123.13 64.58H122.13V65.58H123.13V64.58ZM123.13 40.395V39.395H122.13V40.395H123.13ZM133.35 53.57H127.75V55.57H133.35V53.57ZM127.75 53.57C126.953 53.57 126.33 54.1927 126.33 54.99H128.33C128.33 55.1121 128.283 55.268 128.156 55.3952C128.028 55.5225 127.872 55.57 127.75 55.57V53.57ZM126.33 54.99V59.995H128.33V54.99H126.33ZM126.33 59.995C126.33 60.8135 127.011 61.38 127.75 61.38V59.38C128 59.38 128.33 59.5965 128.33 59.995H126.33ZM127.75 61.38H135.695V59.38H127.75V61.38ZM135.695 61.38C136.458 61.38 137.08 60.7573 137.08 59.995H135.08C135.08 59.6527 135.353 59.38 135.695 59.38V61.38ZM137.08 59.995C137.08 59.2557 136.514 58.575 135.695 58.575V60.575C135.297 60.575 135.08 60.2443 135.08 59.995H137.08ZM135.695 58.575H128.135V60.575H135.695V58.575ZM129.135 59.575V55.375H127.135V59.575H129.135ZM128.135 56.375H133.35V54.375H128.135V56.375ZM133.35 56.375C134.09 56.375 134.77 55.8085 134.77 54.99H132.77C132.77 54.5915 133.101 54.375 133.35 54.375V56.375ZM134.77 54.99C134.77 54.1927 134.148 53.57 133.35 53.57V55.57C133.228 55.57 133.072 55.5225 132.945 55.3952C132.818 55.268 132.77 55.1121 132.77 54.99H134.77ZM135.695 43.595H127.75V45.595H135.695V43.595ZM127.75 43.595C127.011 43.595 126.33 44.1615 126.33 44.98H128.33C128.33 45.3785 128 45.595 127.75 45.595V43.595ZM126.33 44.98V49.985H128.33V44.98H126.33ZM126.33 49.985C126.33 50.6927 126.9 51.405 127.75 51.405V49.405C127.928 49.405 128.078 49.4844 128.176 49.5871C128.265 49.6817 128.33 49.8182 128.33 49.985H126.33ZM127.75 51.405H133.35V49.405H127.75V51.405ZM133.35 51.405C134.201 51.405 134.77 50.6927 134.77 49.985H132.77C132.77 49.8182 132.836 49.6817 132.925 49.5871C133.022 49.4844 133.173 49.405 133.35 49.405V51.405ZM134.77 49.985C134.77 49.2773 134.201 48.565 133.35 48.565V50.565C133.173 50.565 133.022 50.4856 132.925 50.3829C132.836 50.2883 132.77 50.1518 132.77 49.985H134.77ZM133.35 48.565H128.135V50.565H133.35V48.565ZM129.135 49.565V45.4H127.135V49.565H129.135ZM128.135 46.4H135.695V44.4H128.135V46.4ZM135.695 46.4C136.514 46.4 137.08 45.7193 137.08 44.98H135.08C135.08 44.7307 135.297 44.4 135.695 44.4V46.4ZM137.08 44.98C137.08 44.2177 136.458 43.595 135.695 43.595V45.595C135.353 45.595 135.08 45.3223 135.08 44.98H137.08ZM135.695 63.58H123.13V65.58H135.695V63.58ZM124.13 64.58V40.395H122.13V64.58H124.13ZM123.13 41.395H135.695V39.395H123.13V41.395ZM135.695 41.395C136.514 41.395 137.08 40.7143 137.08 39.975H135.08C135.08 39.7257 135.297 39.395 135.695 39.395V41.395ZM137.08 39.975C137.08 39.2127 136.458 38.59 135.695 38.59V40.59C135.353 40.59 135.08 40.3173 135.08 39.975H137.08ZM135.695 38.59H122.745V40.59H135.695V38.59ZM122.745 38.59C122.006 38.59 121.325 39.1565 121.325 39.975H123.325C123.325 40.3735 122.995 40.59 122.745 40.59V38.59ZM121.325 39.975V65H123.325V39.975H121.325ZM121.325 65C121.325 65.8185 122.006 66.385 122.745 66.385V64.385C122.995 64.385 123.325 64.6015 123.325 65H121.325ZM122.745 66.385H135.695V64.385H122.745V66.385ZM135.695 66.385C136.458 66.385 137.08 65.7623 137.08 65H135.08C135.08 64.6577 135.353 64.385 135.695 64.385V66.385ZM137.08 65C137.08 64.2607 136.514 63.58 135.695 63.58V65.58C135.297 65.58 135.08 65.2493 135.08 65H137.08ZM141.587 64.58H140.587V65.58H141.587V64.58ZM146.592 59.575H145.592V60.575H146.592V59.575ZM155.727 63.58H141.587V65.58H155.727V63.58ZM142.587 64.58V39.975H140.587V64.58H142.587ZM142.587 39.975C142.587 39.1565 141.907 38.59 141.167 38.59V40.59C140.918 40.59 140.587 40.3735 140.587 39.975H142.587ZM141.167 38.59C140.405 38.59 139.782 39.2127 139.782 39.975H141.782C141.782 40.3173 141.51 40.59 141.167 40.59V38.59ZM139.782 39.975V65H141.782V39.975H139.782ZM139.782 65C139.782 65.7623 140.405 66.385 141.167 66.385V64.385C141.51 64.385 141.782 64.6577 141.782 65H139.782ZM141.167 66.385H155.727V64.385H141.167V66.385ZM155.727 66.385C156.467 66.385 157.147 65.8185 157.147 65H155.147C155.147 64.6015 155.478 64.385 155.727 64.385V66.385ZM157.147 65C157.147 64.2027 156.525 63.58 155.727 63.58V65.58C155.605 65.58 155.449 65.5325 155.322 65.4052C155.195 65.278 155.147 65.1221 155.147 65H157.147ZM144.752 39.975V59.995H146.752V39.975H144.752ZM144.752 59.995C144.752 60.4436 144.975 60.7961 145.219 61.0137C145.462 61.2297 145.799 61.38 146.172 61.38V59.38C146.336 59.38 146.462 59.4428 146.548 59.5188C146.635 59.5964 146.752 59.7564 146.752 59.995H144.752ZM146.172 61.38H155.727V59.38H146.172V61.38ZM155.727 61.38C156.467 61.38 157.147 60.8135 157.147 59.995H155.147C155.147 59.5965 155.478 59.38 155.727 59.38V61.38ZM157.147 59.995C157.147 59.1977 156.525 58.575 155.727 58.575V60.575C155.605 60.575 155.449 60.5275 155.322 60.4002C155.195 60.273 155.147 60.1171 155.147 59.995H157.147ZM155.727 58.575H146.592V60.575H155.727V58.575ZM147.592 59.575V39.975H145.592V59.575H147.592ZM147.592 39.975C147.592 39.5264 147.37 39.1739 147.126 38.9563C146.882 38.7403 146.546 38.59 146.172 38.59V40.59C146.009 40.59 145.882 40.5272 145.797 40.4512C145.71 40.3736 145.592 40.2136 145.592 39.975H147.592ZM146.172 38.59C145.799 38.59 145.462 38.7403 145.219 38.9563C144.975 39.1739 144.752 39.5264 144.752 39.975H146.752C146.752 40.2136 146.635 40.3736 146.548 40.4512C146.462 40.5272 146.336 40.59 146.172 40.59V38.59ZM166.281 55.41V54.41H165.281V55.41H166.281ZM166.281 49.565H165.281V50.565H166.281V49.565ZM166.281 45.4V44.4H165.281V45.4H166.281ZM161.276 40.395V39.395H160.276V40.395H161.276ZM171.496 53.57H165.861V55.57H171.496V53.57ZM165.861 53.57C165.063 53.57 164.441 54.1927 164.441 54.99H166.441C166.441 55.1121 166.393 55.268 166.266 55.3952C166.139 55.5225 165.983 55.57 165.861 55.57V53.57ZM164.441 54.99V65H166.441V54.99H164.441ZM164.441 65C164.441 65.426 164.623 65.8066 164.932 66.0635C165.217 66.3014 165.559 66.3938 165.861 66.3938C166.162 66.3938 166.504 66.3014 166.79 66.0635C167.098 65.8066 167.281 65.426 167.281 65H165.281C165.281 64.8365 165.358 64.6528 165.509 64.5271C165.637 64.4205 165.769 64.3938 165.861 64.3938C165.952 64.3938 166.084 64.4205 166.212 64.5271C166.363 64.6528 166.441 64.8365 166.441 65H164.441ZM167.281 65V55.41H165.281V65H167.281ZM166.281 56.41H171.496V54.41H166.281V56.41ZM171.496 56.41C171.922 56.41 172.302 56.2273 172.559 55.9189C172.797 55.6336 172.889 55.2913 172.889 54.99C172.889 54.6887 172.797 54.3464 172.559 54.0611C172.302 53.7527 171.922 53.57 171.496 53.57V55.57C171.332 55.57 171.149 55.4923 171.023 55.3414C170.916 55.2136 170.889 55.0813 170.889 54.99C170.889 54.8987 170.916 54.7664 171.023 54.6386C171.149 54.4877 171.332 54.41 171.496 54.41V56.41ZM173.806 43.595H165.861V45.595H173.806V43.595ZM165.861 43.595C165.121 43.595 164.441 44.1615 164.441 44.98H166.441C166.441 45.3785 166.11 45.595 165.861 45.595V43.595ZM164.441 44.98V49.985H166.441V44.98H164.441ZM164.441 49.985C164.441 50.6927 165.01 51.405 165.861 51.405V49.405C166.038 49.405 166.189 49.4844 166.286 49.5871C166.375 49.6817 166.441 49.8182 166.441 49.985H164.441ZM165.861 51.405H171.496V49.405H165.861V51.405ZM171.496 51.405C171.922 51.405 172.302 51.2223 172.559 50.9139C172.797 50.6286 172.889 50.2863 172.889 49.985C172.889 49.6837 172.797 49.3414 172.559 49.0561C172.302 48.7477 171.922 48.565 171.496 48.565V50.565C171.332 50.565 171.149 50.4873 171.023 50.3364C170.916 50.2086 170.889 50.0763 170.889 49.985C170.889 49.8937 170.916 49.7614 171.023 49.6336C171.149 49.4827 171.332 49.405 171.496 49.405V51.405ZM171.496 48.565H166.281V50.565H171.496V48.565ZM167.281 49.565V45.4H165.281V49.565H167.281ZM166.281 46.4H173.806V44.4H166.281V46.4ZM173.806 46.4C174.216 46.4 174.593 46.2319 174.856 45.9304C175.1 45.6489 175.199 45.3053 175.199 44.9975C175.199 44.6897 175.1 44.3461 174.856 44.0646C174.593 43.7631 174.216 43.595 173.806 43.595V45.595C173.658 45.595 173.477 45.5276 173.346 45.377C173.233 45.2464 173.199 45.1041 173.199 44.9975C173.199 44.8909 173.233 44.7486 173.346 44.618C173.477 44.4674 173.658 44.4 173.806 44.4V46.4ZM162.276 65V40.395H160.276V65H162.276ZM161.276 41.395H173.806V39.395H161.276V41.395ZM173.806 41.395C174.216 41.395 174.593 41.2269 174.856 40.9254C175.1 40.6439 175.199 40.3003 175.199 39.9925C175.199 39.6847 175.1 39.3411 174.856 39.0596C174.593 38.7581 174.216 38.59 173.806 38.59V40.59C173.658 40.59 173.477 40.5226 173.346 40.372C173.233 40.2414 173.199 40.0991 173.199 39.9925C173.199 39.8859 173.233 39.7436 173.346 39.613C173.477 39.4624 173.658 39.395 173.806 39.395V41.395ZM173.806 38.59H160.856V40.59H173.806V38.59ZM160.856 38.59C160.482 38.59 160.146 38.7403 159.903 38.9563C159.658 39.1739 159.436 39.5264 159.436 39.975H161.436C161.436 40.2136 161.319 40.3736 161.231 40.4512C161.146 40.5272 161.02 40.59 160.856 40.59V38.59ZM159.436 39.975V65H161.436V39.975H159.436ZM159.436 65C159.436 65.426 159.618 65.8066 159.927 66.0635C160.212 66.3014 160.554 66.3938 160.856 66.3938C161.157 66.3938 161.499 66.3014 161.785 66.0635C162.093 65.8066 162.276 65.426 162.276 65H160.276C160.276 64.8365 160.353 64.6528 160.504 64.5271C160.632 64.4205 160.764 64.3938 160.856 64.3938C160.947 64.3938 161.079 64.4205 161.207 64.5271C161.358 64.6528 161.436 64.8365 161.436 65H159.436Z" fill="url(#paint1_linear)"/>
</g>
<defs>
<filter id="filter0_b" x="-3.36496" y="-3.935" width="182.564" height="74.775" filterUnits="userSpaceOnUse" color-interpolation-filters="sRGB">
<feFlood flood-opacity="0" result="BackgroundImageFix"/>
<feGaussianBlur in="BackgroundImage" stdDeviation="2"/>
<feComposite in2="SourceAlpha" operator="in" result="effect1_backgroundBlur"/>
<feBlend mode="normal" in="SourceGraphic" in2="effect1_backgroundBlur" result="shape"/>
</filter>
<linearGradient id="paint0_linear" x1="25.6563" y1="1" x2="147.078" y2="1" gradientUnits="userSpaceOnUse">
<stop offset="0.168378" stop-color="#F3CCBD"/>
<stop offset="0.281314" stop-color="#EEBCBB"/>
<stop offset="0.404517" stop-color="#E7ACC2"/>
<stop offset="0.579055" stop-color="#D6B5D4"/>
<stop offset="0.737166" stop-color="#C9BCDA"/>
<stop offset="0.858316" stop-color="#B2C9E9"/>
</linearGradient>
<linearGradient id="paint1_linear" x1="3.38189" y1="68.3147" x2="146.504" y2="67.2617" gradientUnits="userSpaceOnUse">
<stop stop-color="#F3CCBD"/>
<stop offset="0.203125" stop-color="#EEBCBB"/>
<stop offset="0.453125" stop-color="#E7ACC2"/>
<stop offset="0.572276" stop-color="#D6B5D4"/>
<stop offset="0.821725" stop-color="#C9BCDA"/>
<stop offset="1" stop-color="#B2C9E9"/>
</linearGradient>
</defs>
</svg>
